<?xml version="1.0" encoding="UTF-8"?>
<svg width="31px" height="26px" viewBox="0 0 31 26" version="1.1" xmlns="http://www.w3.org/2000/svg" xmlns:xlink="http://www.w3.org/1999/xlink">
    <title>4BF4E863-6F53-40C8-B8E2-76A5BFE0ABAE</title>
    <defs>
        <filter id="filter-1">
            <feColorMatrix in="SourceGraphic" type="matrix" values="0 0 0 0 0.009324 0 0 0 0 0.009324 0 0 0 0 0.009324 0 0 0 1.000000 0"></feColorMatrix>
        </filter>
    </defs>
    <g id="Desktop" stroke="none" stroke-width="1" fill="none" fill-rule="evenodd" stroke-linecap="round" stroke-linejoin="round">
        <g transform="translate(-1269.000000, -72.000000)" id="Group">
            <g transform="translate(110.000000, 68.000000)">
                <g id="Wishlist" transform="translate(1159.000000, 4.000000)" filter="url(#filter-1)">
                    <g transform="translate(3.351351, 1.666667)">
                        <path d="M24.8110151,9.80801232 C24.4657876,11.0977646 23.8736114,12.3031539 23.0694174,13.353077 C22.1452641,14.5234239 21.0916279,15.5783461 19.9299584,16.4963677 C19.494559,16.8745079 19.0362438,17.2526482 18.6123023,17.6780559 C17.8904559,18.3398014 16.549884,19.4624052 15.1749385,20.5259246 C14.3958027,21.1404025 13.8229087,21.5776271 13.410425,21.8730492 L13.410425,21.8730492 C12.940652,22.2275556 12.6771208,22.4048089 12.5396262,22.487527 C12.4021317,22.5702452 12.1386004,22.2275556 11.6688274,21.8730492 L11.6688274,21.8730492 C11.2563437,21.5776271 10.6834497,21.1404025 9.90431393,20.5259246 C8.59811568,19.4978558 7.25754379,18.3161676 6.53569738,17.6898728 C6.10029796,17.2880988 5.65344067,16.9099586 5.21804125,16.5081846 C4.05929388,15.5911239 3.00597234,14.5404814 2.07858228,13.3767108 C1.27543174,12.3261001 0.683366773,11.1209373 0.336984612,9.83164609 C0.0641743354,8.74454714 -0.0440438481,7.62048588 0.0161639877,6.49928527 C0.0479183396,5.22640524 0.446829835,3.99217418 1.16195193,2.95422058 L1.16195193,2.95422058 C1.64352965,2.21618457 2.26763794,1.58861305 2.99521264,1.11078694 C4.11853757,0.405398819 5.40403114,0.0219450044 6.71902345,0 C8.29996141,0.0273647497 9.81476503,0.659008711 10.9698967,1.77253235 C11.4075984,2.22468198 11.7921737,2.72839563 12.1156847,3.2732764 C12.2073477,3.40326211 12.3563001,3.80503611 12.5167104,3.80503611 C12.6771208,3.80503611 12.8260732,3.41507899 12.9177362,3.2732764 C13.2809379,2.72155935 13.708033,2.21759013 14.1895608,1.77253235 C15.3428867,0.656093198 16.8588298,0.0239740989 18.4404341,0 C19.7551784,0.0236471371 21.0402487,0.406974713 22.1642449,1.11078694 C22.8835435,1.59116281 23.4996832,2.21856403 23.9745899,2.95422058 C24.689712,3.99217418 25.0886235,5.22640524 25.1203778,6.49928527 C25.1765223,7.61190466 25.0722659,8.72695787 24.8110151,9.80801232 Z" id="Path" stroke="#163567" stroke-width="2"></path>
                    </g>
                </g>
            </g>
        </g>
    </g>
</svg>