<?xml version="1.0" encoding="UTF-8"?>
<svg width="29px" height="30px" viewBox="0 0 29 30" version="1.1" xmlns="http://www.w3.org/2000/svg" xmlns:xlink="http://www.w3.org/1999/xlink">
    <title>57A139B7-A93B-48D0-9EA9-1D2020E04825</title>
    <defs>
        <filter id="filter-1">
            <feColorMatrix in="SourceGraphic" type="matrix" values="0 0 0 0 0.009324 0 0 0 0 0.009324 0 0 0 0 0.009324 0 0 0 1.000000 0"></feColorMatrix>
        </filter>
    </defs>
    <g id="Desktop" stroke="none" stroke-width="1" fill="none" fill-rule="evenodd" stroke-linecap="round" stroke-linejoin="round">
        <g transform="translate(-1227.000000, -70.000000)" id="Group">
            <g transform="translate(110.000000, 68.000000)">
                <g id="Detail" transform="translate(1117.000000, 2.000000)" filter="url(#filter-1)">
                    <g transform="translate(1.696970, 1.666667)">
                        <path d="M16.834819,11.4754555 C18.8551347,9.64758841 19.5419885,6.74266209 18.5580452,4.18737571 C17.5741019,1.63208934 15.1260864,-0.0366955234 12.4162949,0.000612966207 C9.70650332,0.0379214558 7.30425855,1.77348484 6.38937724,4.35491429 C5.47449593,6.93634374 6.23919316,9.82128506 8.30790248,11.5928544 C3.34783235,13.3989054 0.0332880884,18.151014 0.0130109222,23.4853566 C-0.00433697405,23.8138389 -0.00433697405,24.1430245 0.0130109222,24.4715068 C1.90401417,25.1172004 5.55840696,25.8333333 12.4959526,25.8333333 C19.6655232,25.8333333 23.4939347,25.058501 25.4545455,24.4010675 C25.4545455,24.1075704 25.4545455,23.7905936 25.4545455,23.4853566 C25.4319666,18.0229732 21.9609813,13.1868349 16.834819,11.4754555 Z" id="Path" stroke="#163567" stroke-width="2"></path>
                    </g>
                </g>
            </g>
        </g>
    </g>
</svg>